<svg xmlns="http://www.w3.org/2000/svg" xmlns:xlink="http://www.w3.org/1999/xlink" viewbox="0 0 500 500" width="500" height="500" xml:space="preserve"><defs><path id="a" d="M.1 37.8h500v425.8H.1z"/></defs><clipPath id="b"><use xlink:href="#a" overflow="visible"/></clipPath><path clip-path="url(#b)" fill="#EF801C" d="M500.1 244.5s-72.2 45.7-124.8 15.6c-52.6-30.1-87.7-84.4-102.8-81.7-8.7 1.6-27.6 22-30 25-2.4 3.1-5.3 6.8-8.5 11.2l-10.5 14.9-5.7 8.7-2.9 4.6-2.9 4.8-5.9 10.2-5.8 10.8c-1.9 3.7-3.8 7.4-5.6 11.3l-2.7 5.8-2.6 6c-1.8 4-3.3 8.1-5 12.1-.9 2-1.5 4.1-2.3 6.2l-2.2 6.2-2 6.3c-.7 2.1-1.4 4.2-1.9 6.3-1.1 4.2-2.4 8.4-3.3 12.6l-1.5 6.3-1.2 6.3-1.1 6.2-.8 6.1c-.2 2-.6 4-.7 6l-.5 5.9c-.4 3.9-.4 7.7-.5 11.5 0 1.9-.2 3.7-.1 5.5l.2 5.3.2 5.1.5 4.9.4 4.7.2 2.3.4 2.2 1.3 8.2.8 3.7.8 3.4 1.4 6 3.4 11.2.2.5a8.3 8.3 0 0 1-5.5 10.3 8.2 8.2 0 0 1-10.3-5.5l-.1-.4-3.2-12.4-1.3-6.6-.7-3.8-.7-4.1-1-9-.3-2.4-.1-2.5-.3-5.1-.3-5.3.1-5.5.1-5.7.3-5.9c.3-4 .5-8 1.1-12.1l.8-6.2c.2-2.1.7-4.2 1.1-6.3l1.1-6.4 1.5-6.4 1.5-6.5 1.8-6.5c1.1-4.4 2.7-8.6 4-12.9l2.3-6.4 2.4-6.4 2.6-6.3 2.7-6.3c1.9-4.1 3.7-8.2 5.7-12.2l2.9-6 3.1-5.8c2-3.9 4.2-7.6 6.3-11.3l6.4-10.7 6.4-10 3.2-4.8 3.2-4.6 6.1-8.6a408 408 0 0 1 25.8-31.5s-4.4-25.2-11.3-33.4c-11.9-14.1-69.9 5.1-131.3-10.2S.1 40.4.1 40.4s47.4 0 104.8-2.5c73.7-3.2 120.9 89.5 132.4 116.9a183 183 0 0 1 11.3 35.5c4.1-4.5 11.6-11.7 23.9-19.6 20.5-13.2 96.3-52.1 150.1.5 42 41 77.5 73.3 77.5 73.3"/></svg>